<svg width="45" height="51" viewBox="0 0 45 51" fill="none" xmlns="http://www.w3.org/2000/svg">
<path d="M42.4698 15.049L27.4805 1.90846C26.1064 0.679455 24.3276 0 22.4841 0C20.6406 0 18.8618 0.679455 17.4877 1.90846L2.49844 15.049C1.70493 15.7587 1.07172 16.6293 0.640957 17.6028C0.210195 18.5763 -0.0082255 19.6304 0.000236815 20.695V42.5293C0.000236815 44.517 0.789847 46.4233 2.19536 47.8288C3.60088 49.2343 5.50716 50.0239 7.49486 50.0239H37.4733C39.461 50.0239 41.3673 49.2343 42.7728 47.8288C44.1784 46.4233 44.968 44.517 44.968 42.5293V20.67C44.9729 19.6097 44.7527 18.5604 44.3221 17.5914C43.8915 16.6225 43.2601 15.7559 42.4698 15.049ZM27.4805 45.0275H17.4877V32.5365C17.4877 31.8739 17.7509 31.2385 18.2194 30.77C18.6879 30.3015 19.3233 30.0383 19.9859 30.0383H24.9823C25.6449 30.0383 26.2803 30.3015 26.7488 30.77C27.2173 31.2385 27.4805 31.8739 27.4805 32.5365V45.0275ZM39.9716 42.5293C39.9716 43.1919 39.7084 43.8273 39.2398 44.2958C38.7713 44.7643 38.1359 45.0275 37.4733 45.0275H32.4769V32.5365C32.4769 30.5488 31.6873 28.6425 30.2818 27.237C28.8763 25.8315 26.97 25.0419 24.9823 25.0419H19.9859C17.9982 25.0419 16.0919 25.8315 14.6864 27.237C13.2809 28.6425 12.4913 30.5488 12.4913 32.5365V45.0275H7.49486C6.83229 45.0275 6.19686 44.7643 5.72836 44.2958C5.25986 43.8273 4.99665 43.1919 4.99665 42.5293V20.67C4.9971 20.3153 5.07308 19.9647 5.21953 19.6417C5.36599 19.3186 5.57956 19.0304 5.84604 18.7963L20.8353 5.68075C21.2912 5.28024 21.8773 5.05936 22.4841 5.05936C23.0909 5.05936 23.677 5.28024 24.1329 5.68075L39.1222 18.7963C39.3886 19.0304 39.6022 19.3186 39.7487 19.6417C39.8951 19.9647 39.9711 20.3153 39.9716 20.67V42.5293Z" fill="black"/>
</svg>
